<svg width="220" height="220" viewBox="0 0 220 220" fill="none" xmlns="http://www.w3.org/2000/svg">
<g clip-path="url(#clip0_309_10)">
<path fill-rule="evenodd" clip-rule="evenodd" d="M77.039 8.90552L111.492 67.9484C120.704 83.6564 77.5623 84.511 72.6278 75.7048L45.4398 27.2507C42.8514 22.6278 42.3906 17.0945 44.191 12.11C45.9914 7.12537 49.8697 3.19524 54.7915 1.3545L55.3945 1.12769C63.5194 -1.91261 72.6378 1.36534 77.039 8.90552Z" fill="#FFFFFF"/>
<path fill-rule="evenodd" clip-rule="evenodd" d="M150.929 106.236C141.019 106.236 141.019 90.7225 150.929 90.7225H173.605C175.058 90.7225 176.44 90.1425 177.473 89.1089C178.496 88.0649 179.07 86.6677 179.07 85.1994V85.1683C179.07 82.1176 176.624 79.6452 173.605 79.6452H46.3922C43.3738 79.6452 40.9275 82.1176 40.9275 85.1683V85.1994C40.9275 86.6677 41.5014 88.0649 42.5241 89.1089C43.5571 90.1425 44.9395 90.7225 46.3922 90.7225H67.9734C77.8833 90.7225 77.8832 106.236 67.9734 106.236H46.3922C40.8762 106.236 35.5759 104.023 31.6768 100.072C27.7676 96.1314 25.5784 90.7744 25.5784 85.1994V85.1682C25.5784 73.5436 34.901 64.132 46.3922 64.132H173.605C185.096 64.132 194.419 73.5436 194.419 85.1682V85.1994C194.419 90.7744 192.229 96.1313 188.32 100.072C184.421 104.023 179.121 106.236 173.605 106.236H150.929Z" fill="#FFFFFF"/>
<path fill-rule="evenodd" clip-rule="evenodd" d="M84.4197 172.725C78.3108 172.725 72.4576 170.263 68.1388 165.91C63.8201 161.545 61.3962 155.62 61.3962 149.455V71.8896C61.3962 67.5975 64.8343 64.1331 69.0707 64.1331H135.585C141.694 64.1331 147.547 66.5846 151.866 70.9477C156.184 75.3021 158.608 81.2267 158.608 87.4027V118.429C158.608 131.274 148.304 141.699 135.585 141.699C122.865 141.699 112.561 131.274 112.561 118.429V113.257C112.561 111.82 111.415 110.672 110.004 110.672C108.592 110.672 107.446 111.82 107.446 113.257V149.455C107.446 162.3 97.1419 172.725 84.4224 172.725H84.4197Z" fill="#FFFFFF"/>
<path fill-rule="evenodd" clip-rule="evenodd" d="M173.935 101.839C172.104 97.9813 173.711 93.3482 177.528 91.4871C181.344 89.6363 185.928 91.2603 187.77 95.1178C193.204 106.536 196.253 119.329 196.253 132.825C196.253 180.938 157.605 220 110 220C62.3958 220 23.7473 180.938 23.7473 132.825C23.7473 119.329 26.7966 106.536 32.2305 95.1178C34.0721 91.2603 38.6561 89.6364 42.4727 91.4871C46.2894 93.3483 47.8962 97.9813 46.065 101.839C41.6041 111.219 39.0961 121.727 39.0961 132.823C39.0961 172.372 70.8682 204.485 110 204.485C149.132 204.485 180.904 172.373 180.904 132.823C180.904 121.727 178.398 111.219 173.935 101.839Z" fill="#FFFFFF"/>
<path fill-rule="evenodd" clip-rule="evenodd" d="M171.396 204.482C175.633 204.482 179.071 207.957 179.071 212.239C179.071 216.521 175.633 219.995 171.396 219.995H48.6038C44.3674 219.995 40.9293 216.521 40.9293 212.239C40.9293 207.957 44.3674 204.482 48.6038 204.482H171.396Z" fill="#FFFFFF"/>
<path fill-rule="evenodd" clip-rule="evenodd" d="M23.0236 204.482C27.26 204.482 30.6981 207.957 30.6981 212.239C30.6981 216.521 27.26 219.995 23.0236 219.995H7.67452C3.4381 219.995 0 216.521 0 212.239C0 207.957 3.4381 204.482 7.67452 204.482H23.0236Z" fill="#FFFFFF"/>
<path fill-rule="evenodd" clip-rule="evenodd" d="M212.325 204.482C216.562 204.482 220 207.957 220 212.239C220 216.521 216.562 219.995 212.325 219.995H196.976C192.74 219.995 189.302 216.521 189.302 212.239C189.302 207.957 192.74 204.482 196.976 204.482H212.325Z" fill="#FFFFFF"/>
</g>
<defs>
<clipPath id="clip0_309_10">
<rect width="220" height="220" fill="white"/>
</clipPath>
</defs>
</svg>
