<svg width="512" height="512" viewBox="0 0 512 512" fill="none" xmlns="http://www.w3.org/2000/svg">
<rect width="512" height="512" fill="#F0F4EF"/>
<path fill-rule="evenodd" clip-rule="evenodd" d="M155.414 392.552C166.016 399.897 178.328 403.57 192.35 403.57C201.584 403.57 210.048 402.075 217.743 399.086C225.438 396.011 232.235 391.869 238.135 386.658C244.12 381.363 249.036 375.384 252.883 368.722H254.422L249.036 401.008H319.316L362.921 138.619H292.127L275.455 238.552H274.429C272.976 231.89 270.24 225.783 266.221 220.231C262.203 214.594 256.773 210.11 249.934 206.778C243.179 203.362 234.928 201.654 225.181 201.654C212.186 201.654 199.232 205.113 186.322 212.031C173.497 218.95 162.126 229.84 152.208 244.702C142.375 259.564 135.493 278.867 131.56 302.612C127.798 325.332 128.182 344.165 132.714 359.113C137.331 374.06 144.898 385.206 155.414 392.552ZM237.789 288.753L236.178 254.074C235.92 248.525 228.826 246.387 225.545 250.869L204.882 279.091C203.423 281.083 201.125 282.289 198.656 282.358L166.282 283.257C160.554 283.416 158.405 290.835 163.162 294.031L189.795 311.922C191.901 313.337 193.21 315.669 193.322 318.204L194.919 354.51C195.166 360.141 202.422 362.24 205.637 357.611L226.225 327.969C227.685 325.868 230.062 324.593 232.62 324.538L264.258 323.87C269.965 323.749 272.179 316.392 267.486 313.142L241.222 294.952C239.174 293.533 237.905 291.241 237.789 288.753Z" fill="#0D1821"/>
<path d="M338.905 106.837L342.53 129.551C342.922 132.011 342.145 134.513 340.429 136.318L326.297 151.176C322.363 155.312 326.025 162.066 331.638 161.024L351.539 157.329C354.055 156.862 356.641 157.628 358.498 159.388L375.836 175.836C379.925 179.715 386.602 176.185 385.7 170.621L381.843 146.828C381.436 144.323 382.244 141.774 384.019 139.96L398.389 125.276C402.397 121.18 398.785 114.353 393.144 115.361L372.66 119.024C370.229 119.458 367.733 118.745 365.9 117.09L348.665 101.538C344.54 97.8162 338.03 101.352 338.905 106.837Z" fill="#85D2BB"/>
</svg>
