<svg width="512" height="512" viewBox="0 0 512 512" fill="none" xmlns="http://www.w3.org/2000/svg">
<rect width="512" height="512" fill="#2B2D42"/>
<path d="M256 97C343.45 97 415 168.55 415 256C415 343.45 343.45 415 256 415C168.55 415 97 343.45 97 256C97 168.55 168.55 97 256 97ZM256 128.8C225.79 128.8 198.76 138.34 178.09 155.83L356.17 333.91C372.07 311.65 383.2 284.62 383.2 256C383.2 186.04 325.96 128.8 256 128.8ZM333.91 356.17L155.83 178.09C138.34 198.76 128.8 225.79 128.8 256C128.8 325.96 186.04 383.2 256 383.2C286.21 383.2 313.24 373.66 333.91 356.17Z" fill="#3E4053"/>
</svg>
