<svg width="500" height="500" viewBox="0 0 500 500" fill="none" xmlns="http://www.w3.org/2000/svg">
<g clip-path="url(#clip0_112_2)">
<rect width="500" height="500" fill="black"/>
<rect x="-150.08" y="475.523" width="549.915" height="361.858" transform="rotate(-80 -150.08 475.523)" fill="url(#paint0_linear_112_2)"/>
<path d="M164.944 349L124.624 274.12H118.576V349H62.128V145.96H151.12C167.44 145.96 181.264 148.84 192.592 154.6C203.92 160.168 212.464 167.944 218.224 177.928C223.984 187.72 226.864 198.76 226.864 211.048C226.864 224.872 223.024 237.064 215.344 247.624C207.856 257.992 196.816 265.384 182.224 269.8L228.016 349H164.944ZM118.576 235.528H146.512C154.192 235.528 159.952 233.704 163.792 230.056C167.632 226.408 169.552 221.128 169.552 214.216C169.552 207.688 167.536 202.6 163.504 198.952C159.664 195.112 154 193.192 146.512 193.192H118.576V235.528Z" fill="black"/>
<path d="M358.736 351.016C335.12 351.016 315.728 345.448 300.56 334.312C285.392 322.984 277.232 306.856 276.08 285.928H336.272C336.848 293.032 338.96 298.216 342.608 301.48C346.256 304.744 350.96 306.376 356.72 306.376C361.904 306.376 366.128 305.128 369.392 302.632C372.848 299.944 374.576 296.296 374.576 291.688C374.576 285.736 371.792 281.128 366.224 277.864C360.656 274.6 351.632 270.952 339.152 266.92C325.904 262.504 315.152 258.28 306.896 254.248C298.832 250.024 291.728 243.976 285.584 236.104C279.632 228.04 276.656 217.576 276.656 204.712C276.656 191.656 279.92 180.52 286.448 171.304C292.976 161.896 302 154.792 313.52 149.992C325.04 145.192 338.096 142.792 352.688 142.792C376.304 142.792 395.12 148.36 409.136 159.496C423.344 170.44 430.928 185.896 431.888 205.864H370.544C370.352 199.72 368.432 195.112 364.784 192.04C361.328 188.968 356.816 187.432 351.248 187.432C347.024 187.432 343.568 188.68 340.88 191.176C338.192 193.672 336.848 197.224 336.848 201.832C336.848 205.672 338.288 209.032 341.168 211.912C344.24 214.6 347.984 217 352.4 219.112C356.816 221.032 363.344 223.528 371.984 226.6C384.848 231.016 395.408 235.432 403.664 239.848C412.112 244.072 419.312 250.12 425.264 257.992C431.408 265.672 434.48 275.464 434.48 287.368C434.48 299.464 431.408 310.312 425.264 319.912C419.312 329.512 410.576 337.096 399.056 342.664C387.728 348.232 374.288 351.016 358.736 351.016Z" fill="url(#paint1_linear_112_2)"/>
</g>
<defs>
<linearGradient id="paint0_linear_112_2" x1="124.877" y1="475.523" x2="64.7448" y2="965.239" gradientUnits="userSpaceOnUse">
<stop stop-color="#00FDDC"/>
<stop offset="1" stop-color="#0E79B2"/>
</linearGradient>
<linearGradient id="paint1_linear_112_2" x1="-29" y1="15.5" x2="476.5" y2="460.5" gradientUnits="userSpaceOnUse">
<stop stop-color="#00FDDC"/>
<stop offset="1" stop-color="#0E79B2"/>
</linearGradient>
<clipPath id="clip0_112_2">
<rect width="500" height="500" fill="white"/>
</clipPath>
</defs>
</svg>
