<svg width="2000" height="2000" viewBox="0 0 2000 2000" fill="none" xmlns="http://www.w3.org/2000/svg">
<g clip-path="url(#clip0_8_14)">
<rect width="2000" height="500" fill="#00C4FB"/>
<rect y="500" width="2000" height="500" fill="#00B1FA"/>
<rect y="1000" width="2000" height="500" fill="#0091FB"/>
<rect y="1500" width="2000" height="500" fill="#0075F7"/>
<path d="M851.143 1404.83C829.526 1381.72 818.181 1355.78 818.181 1329.45C818.181 1300.16 812.155 1288.62 777.608 1251.74C743.294 1215.11 737.077 1199.86 743.965 1169.21C753.7 1125.88 769.842 1112.26 902.997 1034.99C937.151 1015.17 966.673 994.839 968.602 989.813C972.82 978.82 957.08 956.606 937.499 945.917C929.687 941.652 898.759 926.856 868.77 913.037C807.201 884.665 769.72 854.343 762.098 826.74C754.651 799.768 764.185 756.448 781.56 738.312C800.245 718.809 895.706 662.104 971.59 625.431C1074.77 575.568 1132.09 568.721 1165.63 602.253C1185.83 622.461 1187.71 656.732 1170.17 685.116C1155.26 709.25 1112.82 744.753 1070.32 768.645C1052 778.949 1036.2 791.515 1035.23 796.569C1032.86 808.864 1057.78 827.087 1145.46 877.187C1228.12 924.419 1249.77 945.788 1254.12 984.429C1257.55 1014.81 1246.43 1039.09 1220.18 1058.57C1210.02 1066.11 1160.11 1093.52 1109.27 1119.48C980.242 1185.36 957.505 1210.41 950.957 1293.93C945.446 1364.22 914.209 1420.45 880.681 1420.45C871.737 1420.45 859.907 1414.2 851.143 1404.83Z" fill="#121316"/>
<path d="M849.237 1396.46C829.423 1372.91 825.296 1362.16 821 1322.89C817.807 1293.7 814.277 1287.04 783.592 1252.28C745.129 1208.71 740.078 1195.65 749.51 1164.16C758.881 1132.89 783.443 1107.21 825.083 1085.15C889.857 1050.85 960.075 1005.22 966.465 993.279C971.472 983.923 970.61 978.702 962.227 967.603C950.019 951.44 942.197 946.873 868.77 913.037C778.165 871.285 751.322 838.003 762.03 780.689C768.65 745.252 782.804 731.098 853.959 688.758C981.894 612.633 1082.51 573.507 1128.27 582.092C1179.8 591.76 1198.43 645.841 1165.75 690.909C1147.45 716.144 1099.69 754.228 1063.64 772.336C1015.52 796.508 1025.21 809.53 1138.35 872.719C1239.81 929.38 1266.84 963.187 1250.43 1012.9C1240.8 1042.07 1221.19 1056.63 1124.78 1106.24C1012.44 1164.03 995.675 1175.41 972.539 1209.5C956.072 1233.77 952.641 1245.27 946.229 1297.64C941.777 1334.01 934.913 1364.08 928.903 1373.54C899.314 1420.1 875.015 1427.1 849.237 1396.46Z" fill="#121316"/>
<path d="M862.374 1401.99C844.097 1387.75 829.586 1355.43 829.565 1328.92C829.542 1299.46 815.622 1274.62 776.442 1234.13C755.531 1212.52 752.902 1206.81 753.392 1184.09C754.327 1140.66 770.641 1125.42 893.943 1052.76C1008.42 985.306 1007.14 973.91 877.703 909.091C781.514 860.919 767.044 846.991 767.044 802.575C767.044 760.395 780.077 741.698 831.683 709.849C964.562 627.841 1087.12 579.001 1130.12 590.92C1155.54 597.967 1161.38 601.898 1169.6 617.524C1191.72 659.55 1156.55 709.754 1069.27 760.728C1004.08 798.802 1011.42 810.56 1147.73 886.354C1177.41 902.863 1210.06 924.23 1220.28 933.837C1256.78 968.16 1255.33 1014.25 1216.72 1046.74C1206.95 1054.96 1162.5 1080.07 1117.94 1102.53C1073.38 1125 1029.26 1148.6 1019.88 1154.99C966.518 1191.34 945.568 1227.59 939.988 1293.23C932.87 1376.96 896.2 1428.35 862.374 1401.99Z" fill="#121316"/>
<path d="M862.361 1393.47C845.976 1374.78 835.227 1347.17 835.227 1323.77C835.227 1294.73 829.414 1283.57 793.997 1244.63C760.83 1208.17 755.963 1197.24 761.656 1172C768.14 1143.25 780.906 1127.59 813.755 1108.12C830.252 1098.33 871.874 1073.69 906.249 1053.35C940.624 1033.01 971.946 1012.2 975.852 1007.1C997.081 979.387 969.983 940.531 915.122 920.017C862.881 900.483 807.757 869.047 789.718 848.501C775.88 832.742 772.727 824.069 772.727 801.779C772.727 752.007 795.136 732.662 943.333 654.505C1022.31 612.855 1069.11 596.591 1109.99 596.591C1149.12 596.591 1164.33 607.931 1168.68 640.365C1171.73 663.111 1170.49 665.577 1140.03 697.511C1122.52 715.867 1091.26 740.79 1070.56 752.896C1049.86 765.002 1028.81 781.187 1023.78 788.863C1014.88 802.45 1015.24 803.358 1037.71 823.284C1050.4 834.54 1095.05 863.236 1136.92 887.053C1221.23 934.998 1238.64 952.618 1238.64 990.02C1238.64 1027.83 1224.95 1039.52 1113.53 1096.96C1057.1 1126.04 1001.36 1158.04 989.663 1168.05C956.908 1196.09 938.355 1235.14 934.27 1284.64C929.95 1336.97 922.915 1361.3 905.257 1384.94C889.888 1405.52 875.448 1408.39 862.361 1393.47Z" fill="#121316"/>
</g>
<defs>
<clipPath id="clip0_8_14">
<rect width="2000" height="2000" fill="white"/>
</clipPath>
</defs>
</svg>
