<svg width="200" height="200" viewBox="0 0 200 200" fill="none" xmlns="http://www.w3.org/2000/svg">
<rect width="200" height="200" fill="url(#paint0_linear_1_2)"/>
<path d="M100.908 141C95.8364 141 91.2556 140.034 87.1656 138.101C83.0757 136.131 79.7055 133.323 77.0552 129.676C74.4376 125.993 72.7526 121.69 72 116.767L82.6994 114.961C83.4192 118.134 84.6626 120.869 86.4294 123.167C88.229 125.464 90.4213 127.215 93.0061 128.418C95.591 129.622 98.4213 130.223 101.497 130.223C104.344 130.223 106.978 129.713 109.399 128.692C111.82 127.671 113.734 126.212 115.141 124.316C116.581 122.419 117.301 120.195 117.301 117.642C117.301 114.943 116.515 112.791 114.945 111.187C113.407 109.546 111.231 108.251 108.417 107.303L90.3067 101.34C85.8241 99.8815 82.1104 97.6569 79.1656 94.6664C76.2209 91.676 74.7485 87.318 74.7485 81.5924C74.7485 76.8879 75.8446 72.8399 78.0368 69.4483C80.229 66.0202 83.2229 63.431 87.0184 61.6805C90.8466 59.8935 95.1493 59 99.9264 59C104.671 59 108.941 59.9117 112.736 61.7352C116.564 63.5586 119.738 66.2026 122.258 69.6671C124.81 73.1316 126.56 77.2708 127.509 82.0847L116.515 84.1634C115.992 81.2095 114.912 78.6567 113.276 76.505C111.673 74.3169 109.677 72.6575 107.288 71.527C104.9 70.3965 102.315 69.8312 99.5337 69.8312C96.9816 69.8312 94.6421 70.3053 92.5153 71.2535C90.3885 72.2017 88.7035 73.5328 87.4601 75.2468C86.2168 76.9609 85.5951 78.8937 85.5951 81.0454C85.5951 83.9629 86.593 86.1875 88.589 87.7191C90.6176 89.2144 93.2843 90.4725 96.589 91.4937L109.644 95.5964C112.851 96.5811 115.714 97.7481 118.233 99.0974C120.785 100.447 123.043 102.58 125.006 105.498C127.002 108.379 128 112.171 128 116.876C128 121.982 126.773 126.358 124.319 130.005C121.898 133.615 118.626 136.35 114.503 138.21C110.413 140.07 105.881 141 100.908 141Z" fill="#00151F"/>
<defs>
<linearGradient id="paint0_linear_1_2" x1="0" y1="0" x2="200" y2="200" gradientUnits="userSpaceOnUse">
<stop stop-color="#04A7EE"/>
<stop offset="1" stop-color="#0CD2C1"/>
</linearGradient>
</defs>
</svg>
