<svg width="2000" height="2000" viewBox="0 0 2000 2000" fill="none" xmlns="http://www.w3.org/2000/svg">
<g clip-path="url(#clip0_1716_198)">
<rect width="2000" height="500" fill="#00C4FB"/>
<rect y="500" width="2000" height="500" fill="#00B1FA"/>
<rect y="1000" width="2000" height="500" fill="#0091FB"/>
<rect y="1500" width="2000" height="500" fill="#0075F7"/>
<path fill-rule="evenodd" clip-rule="evenodd" d="M1415.99 1172.65C1438.02 1116.82 1449.1 1056.98 1448.59 996.55C1448.46 981.483 1447.62 966.453 1446.06 951.513C1394.1 1035.4 1325.65 1123.52 1243.44 1206.17C1153.49 1296.61 1044.01 1385.31 936.664 1451.37C959.172 1454.92 981.948 1456.72 1004.8 1456.72C1063.58 1456.72 1121.69 1444.82 1175.81 1421.69C1229.93 1398.57 1278.99 1364.67 1320.2 1321.94C1361.41 1279.21 1393.96 1228.48 1415.99 1172.65ZM777.586 1393.36C744.712 1373.62 714.302 1349.63 687.13 1321.94C645.204 1279.21 611.805 1228.48 588.841 1172.65C565.877 1116.82 553.797 1056.98 553.291 996.55C552.785 936.12 563.862 876.281 585.891 820.451C607.92 764.621 640.469 713.892 681.679 671.162C722.889 628.431 771.954 594.535 826.072 571.41C880.19 548.284 938.3 536.381 997.087 536.381C1055.87 536.381 1114.18 548.284 1168.69 571.41C1223.19 594.535 1272.83 628.431 1314.75 671.162C1345.15 702.141 1371.06 737.325 1391.77 775.608C1347.23 891.875 1254.7 1035.19 1151.26 1136.85C1042.59 1243.52 894.675 1345.95 777.586 1393.36Z" fill="#121316"/>
<path fill-rule="evenodd" clip-rule="evenodd" d="M1080.62 544.657C1130.09 553.838 1175.37 571.982 1217.24 595.964C1297.81 564.019 1358.77 555.836 1397.17 589.187C1477.46 658.886 1331.13 960.073 1151.26 1136.85C963.335 1321.31 663.975 1490.59 595.147 1390.73C558.396 1337.33 587.057 1269.9 606.337 1210.14C582.999 1161 564.925 1111.87 557.74 1056.41C424.187 1233.65 392.635 1432.13 468.452 1510.55C627.008 1674.77 998.559 1452.37 1243.44 1206.17C1536.2 911.827 1642.06 569.701 1525.71 464.965C1437.55 385.429 1177.59 466.714 1080.62 544.657Z" fill="#121316" fill-opacity="0.65"/>
</g>
<defs>
<clipPath id="clip0_1716_198">
<rect width="2000" height="2000" fill="white"/>
</clipPath>
</defs>
</svg>
