<svg width="1024" height="1024" viewBox="0 0 1024 1024" fill="none" xmlns="http://www.w3.org/2000/svg">
<g clip-path="url(#clip0_0_2)">
<rect width="1024" height="1024" fill="white"/>
<rect x="-41" y="-35" width="1135" height="1106" fill="#000811"/>
<circle cx="34.669" cy="158.618" r="3.59437" transform="rotate(-12.7856 34.669 158.618)" fill="white"/>
<circle cx="93.0899" cy="145.36" r="3.59437" transform="rotate(-12.7856 93.0899 145.36)" fill="white"/>
<circle cx="101.044" cy="180.413" r="3.59437" transform="rotate(-12.7856 101.044 180.413)" fill="white"/>
<circle cx="82.979" cy="209.084" r="3.59437" transform="rotate(-12.7856 82.979 209.084)" fill="white"/>
<circle cx="168.993" cy="263.28" r="3.59437" transform="rotate(-12.7856 168.993 263.28)" fill="white"/>
<circle cx="97.8098" cy="328.577" r="3.59437" transform="rotate(-12.7856 97.8098 328.577)" fill="white"/>
<circle cx="37.8157" cy="280.763" r="3.59437" transform="rotate(-12.7856 37.8157 280.763)" fill="white"/>
<circle cx="199.821" cy="182.569" r="3.59437" transform="rotate(-12.7856 199.821 182.569)" fill="white"/>
<circle cx="274.15" cy="239.417" r="3.59437" transform="rotate(-12.7856 274.15 239.417)" fill="white"/>
<circle cx="358.096" cy="122.08" r="3.59437" transform="rotate(-12.7856 358.096 122.08)" fill="white"/>
<circle cx="416.517" cy="108.823" r="3.59437" transform="rotate(-12.7856 416.517 108.823)" fill="white"/>
<circle cx="424.471" cy="143.875" r="3.59437" transform="rotate(-12.7856 424.471 143.875)" fill="white"/>
<circle cx="406.406" cy="172.546" r="3.59437" transform="rotate(-12.7856 406.406 172.546)" fill="white"/>
<circle cx="492.42" cy="226.742" r="3.59437" transform="rotate(-12.7856 492.42 226.742)" fill="white"/>
<circle cx="421.237" cy="292.04" r="3.59437" transform="rotate(-12.7856 421.237 292.04)" fill="white"/>
<circle cx="361.243" cy="244.225" r="3.59437" transform="rotate(-12.7856 361.243 244.225)" fill="white"/>
<circle cx="523.248" cy="146.031" r="3.59437" transform="rotate(-12.7856 523.248 146.031)" fill="white"/>
<circle cx="597.577" cy="202.879" r="3.59437" transform="rotate(-12.7856 597.577 202.879)" fill="white"/>
<circle cx="517.928" cy="791.983" r="3.59437" transform="rotate(-38 517.928 791.983)" fill="white"/>
<circle cx="565.135" cy="755.101" r="3.59437" transform="rotate(-38 565.135 755.101)" fill="white"/>
<circle cx="587.264" cy="783.425" r="3.59437" transform="rotate(-38 587.264 783.425)" fill="white"/>
<circle cx="583.134" cy="817.06" r="3.59437" transform="rotate(-38 583.134 817.06)" fill="white"/>
<circle cx="684.04" cy="829.45" r="3.59437" transform="rotate(-38 684.04 829.45)" fill="white"/>
<circle cx="647.456" cy="918.85" r="3.59437" transform="rotate(-38 647.456 918.85)" fill="white"/>
<circle cx="572.809" cy="901.149" r="3.59437" transform="rotate(-38 572.809 901.149)" fill="white"/>
<circle cx="677.548" cy="743.297" r="3.59437" transform="rotate(-38 677.548 743.297)" fill="white"/>
<circle cx="769.013" cy="763.063" r="3.59437" transform="rotate(-38 769.013 763.063)" fill="white"/>
<circle cx="794.973" cy="621.144" r="3.59437" transform="rotate(-38 794.973 621.144)" fill="white"/>
<circle cx="842.18" cy="584.262" r="3.59437" transform="rotate(-38 842.18 584.262)" fill="white"/>
<circle cx="864.31" cy="612.586" r="3.59437" transform="rotate(-38 864.31 612.586)" fill="white"/>
<circle cx="860.18" cy="646.222" r="3.59437" transform="rotate(-38 860.18 646.222)" fill="white"/>
<circle cx="961.086" cy="658.612" r="3.59437" transform="rotate(-38 961.086 658.612)" fill="white"/>
<circle cx="924.502" cy="748.012" r="3.59437" transform="rotate(-38 924.502 748.012)" fill="white"/>
<circle cx="849.855" cy="730.311" r="3.59437" transform="rotate(-38 849.855 730.311)" fill="white"/>
<circle cx="954.593" cy="572.458" r="3.59437" transform="rotate(-38 954.593 572.458)" fill="white"/>
<circle cx="590.266" cy="25.1108" r="3.59437" transform="rotate(28 590.266 25.1108)" fill="white"/>
<circle cx="643.16" cy="53.235" r="3.59437" transform="rotate(28 643.16 53.235)" fill="white"/>
<circle cx="626.286" cy="84.9715" r="3.59437" transform="rotate(28 626.286 84.9715)" fill="white"/>
<circle cx="593.878" cy="94.8794" r="3.59437" transform="rotate(28 593.878 94.8794)" fill="white"/>
<circle cx="623.602" cy="192.101" r="3.59437" transform="rotate(28 623.602 192.101)" fill="white"/>
<circle cx="527.051" cy="195.043" r="3.59437" transform="rotate(28 527.051 195.043)" fill="white"/>
<circle cx="512.86" cy="119.649" r="3.59437" transform="rotate(28 512.86 119.649)" fill="white"/>
<circle cx="699.666" cy="151.128" r="3.59437" transform="rotate(28 699.666 151.128)" fill="white"/>
<circle cx="718.811" cy="242.725" r="3.59437" transform="rotate(28 718.811 242.725)" fill="white"/>
<circle cx="859.019" cy="208.718" r="3.59437" transform="rotate(28 859.019 208.718)" fill="white"/>
<circle cx="911.913" cy="236.842" r="3.59437" transform="rotate(28 911.913 236.842)" fill="white"/>
<circle cx="895.039" cy="268.579" r="3.59437" transform="rotate(28 895.039 268.579)" fill="white"/>
<circle cx="862.631" cy="278.487" r="3.59437" transform="rotate(28 862.631 278.487)" fill="white"/>
<circle cx="892.355" cy="375.709" r="3.59437" transform="rotate(28 892.355 375.709)" fill="white"/>
<circle cx="795.804" cy="378.65" r="3.59437" transform="rotate(28 795.804 378.65)" fill="white"/>
<circle cx="781.613" cy="303.257" r="3.59437" transform="rotate(28 781.613 303.257)" fill="white"/>
<circle cx="968.42" cy="334.735" r="3.59437" transform="rotate(28 968.42 334.735)" fill="white"/>
<circle cx="987.564" cy="426.332" r="3.59437" transform="rotate(28 987.564 426.332)" fill="white"/>
<circle cx="161.96" cy="550.455" r="3.59437" transform="rotate(37 161.96 550.455)" fill="white"/>
<circle cx="209.803" cy="586.507" r="3.59437" transform="rotate(37 209.803 586.507)" fill="white"/>
<circle cx="188.172" cy="615.213" r="3.59437" transform="rotate(37 188.172 615.213)" fill="white"/>
<circle cx="154.613" cy="619.929" r="3.59437" transform="rotate(37 154.613 619.929)" fill="white"/>
<circle cx="168.762" cy="720.604" r="3.59437" transform="rotate(37 168.762 720.604)" fill="white"/>
<circle cx="72.9397" cy="708.405" r="3.59437" transform="rotate(37 72.9397 708.405)" fill="white"/>
<circle cx="70.7176" cy="631.72" r="3.59437" transform="rotate(37 70.7176 631.72)" fill="white"/>
<circle cx="250.3" cy="692.034" r="3.59437" transform="rotate(37 250.3 692.034)" fill="white"/>
<circle cx="254.88" cy="785.499" r="3.59437" transform="rotate(37 254.88 785.499)" fill="white"/>
<circle cx="398.682" cy="773.844" r="3.59437" transform="rotate(37 398.682 773.844)" fill="white"/>
<circle cx="446.525" cy="809.896" r="3.59437" transform="rotate(37 446.525 809.896)" fill="white"/>
<circle cx="424.893" cy="838.602" r="3.59437" transform="rotate(37 424.893 838.602)" fill="white"/>
<circle cx="391.335" cy="843.319" r="3.59437" transform="rotate(37 391.335 843.319)" fill="white"/>
<circle cx="405.484" cy="943.993" r="3.59437" transform="rotate(37 405.484 943.993)" fill="white"/>
<circle cx="309.662" cy="931.794" r="3.59437" transform="rotate(37 309.662 931.794)" fill="white"/>
<circle cx="307.44" cy="855.109" r="3.59437" transform="rotate(37 307.44 855.109)" fill="white"/>
<circle cx="487.022" cy="915.423" r="3.59437" transform="rotate(37 487.022 915.423)" fill="white"/>
<circle cx="491.602" cy="1008.89" r="3.59437" transform="rotate(37 491.602 1008.89)" fill="white"/>
<path d="M843.209 555.339C841.886 566.114 834.461 577.852 817.267 589.425C800.122 600.965 775.11 610.983 743.281 618.419C679.769 633.258 592.92 636.944 498.061 625.297C403.203 613.65 319.825 589.062 261.789 559.299C232.705 544.384 210.859 528.612 197.016 513.268C183.132 497.879 178.768 484.694 180.091 473.918C181.414 463.143 188.838 451.405 206.033 439.832C223.177 428.292 248.189 418.274 280.018 410.838C343.53 395.999 430.38 392.312 525.238 403.96C620.097 415.607 703.474 440.195 761.51 469.958C790.594 484.873 812.44 500.644 826.284 515.989C840.167 531.378 844.532 544.563 843.209 555.339Z" stroke="#454B54" stroke-width="35"/>
<circle cx="513.676" cy="512" r="232.5" fill="#C7D7E2" stroke="#979797"/>
<circle cx="472.176" cy="511.5" r="220" fill="white"/>
<circle cx="514.176" cy="512" r="249.5" stroke="#454B54" stroke-width="35"/>
<circle cx="463.176" cy="596" r="48" fill="#C7D7E2"/>
<circle cx="673.176" cy="526" r="37" fill="#C7D7E2"/>
<circle cx="501.176" cy="386" r="24" fill="#C7D7E2"/>
<path d="M233.176 542C233.176 542 277.062 570.005 344.223 596C361.647 602.744 370.875 606.514 432.295 621.549C445.476 624.775 450.984 626.358 466.147 628.473C476.129 629.865 490.24 631.642 513.676 633.729C572.709 638.984 579.983 637.467 598.111 637.467C634.184 637.467 666.623 634.421 700.563 628.473C722.884 624.561 746.176 618.638 746.176 618.638L781.176 606.629" stroke="#454B54" stroke-width="35" stroke-linecap="square"/>
<path fill-rule="evenodd" clip-rule="evenodd" d="M218.031 433.488L261.082 414.74L288.664 403.965L218.031 433.488Z" stroke="#454B54" stroke-width="35" stroke-linecap="square"/>
<circle cx="62.1504" cy="32.4168" r="3.59437" transform="rotate(-12.7856 62.1504 32.4168)" fill="white"/>
<circle cx="280.42" cy="19.7425" r="3.59437" transform="rotate(-12.7856 280.42 19.7425)" fill="white"/>
<circle cx="209.237" cy="85.0395" r="3.59437" transform="rotate(-12.7856 209.237 85.0395)" fill="white"/>
<circle cx="149.243" cy="37.2248" r="3.59437" transform="rotate(-12.7856 149.243 37.2248)" fill="white"/>
<circle cx="385.577" cy="-4.12104" r="3.59437" transform="rotate(-12.7856 385.577 -4.12104)" fill="white"/>
<circle cx="856.979" cy="2.0843" r="3.59437" transform="rotate(-12.7856 856.979 2.0843)" fill="white"/>
<circle cx="942.993" cy="56.2803" r="3.59437" transform="rotate(-12.7856 942.993 56.2803)" fill="white"/>
<circle cx="871.81" cy="121.577" r="3.59437" transform="rotate(-12.7856 871.81 121.577)" fill="white"/>
<circle cx="811.816" cy="73.7626" r="3.59437" transform="rotate(-12.7856 811.816 73.7626)" fill="white"/>
<circle cx="808.669" cy="858.618" r="3.59437" transform="rotate(-12.7856 808.669 858.618)" fill="white"/>
<circle cx="867.09" cy="845.361" r="3.59437" transform="rotate(-12.7856 867.09 845.361)" fill="white"/>
<circle cx="875.044" cy="880.413" r="3.59437" transform="rotate(-12.7856 875.044 880.413)" fill="white"/>
<circle cx="856.979" cy="909.084" r="3.59437" transform="rotate(-12.7856 856.979 909.084)" fill="white"/>
<circle cx="942.993" cy="963.28" r="3.59437" transform="rotate(-12.7856 942.993 963.28)" fill="white"/>
<circle cx="811.816" cy="980.763" r="3.59437" transform="rotate(-12.7856 811.816 980.763)" fill="white"/>
<circle cx="973.821" cy="882.569" r="3.59437" transform="rotate(-12.7856 973.821 882.569)" fill="white"/>
<circle cx="51.5163" cy="808.823" r="3.59437" transform="rotate(-12.7856 51.5163 808.823)" fill="white"/>
<circle cx="59.4707" cy="843.875" r="3.59437" transform="rotate(-12.7856 59.4707 843.875)" fill="white"/>
<circle cx="41.4054" cy="872.546" r="3.59437" transform="rotate(-12.7856 41.4054 872.546)" fill="white"/>
<circle cx="127.419" cy="926.742" r="3.59437" transform="rotate(-12.7856 127.419 926.742)" fill="white"/>
<circle cx="56.2362" cy="992.04" r="3.59437" transform="rotate(-12.7856 56.2362 992.04)" fill="white"/>
<circle cx="-3.75793" cy="944.225" r="3.59437" transform="rotate(-12.7856 -3.75793 944.225)" fill="white"/>
<circle cx="158.247" cy="846.032" r="3.59437" transform="rotate(-12.7856 158.247 846.032)" fill="white"/>
<circle cx="36.5164" cy="407.822" r="3.59437" transform="rotate(-12.7856 36.5164 407.822)" fill="white"/>
<circle cx="26.4056" cy="471.547" r="3.59437" transform="rotate(-12.7856 26.4056 471.547)" fill="white"/>
<circle cx="112.419" cy="525.743" r="3.59437" transform="rotate(-12.7856 112.419 525.743)" fill="white"/>
<circle cx="143.247" cy="445.031" r="3.59437" transform="rotate(-12.7856 143.247 445.031)" fill="white"/>
<circle cx="223.517" cy="311.822" r="3.59437" transform="rotate(-12.7856 223.517 311.822)" fill="white"/>
<circle cx="213.406" cy="375.547" r="3.59437" transform="rotate(-12.7856 213.406 375.547)" fill="white"/>
<circle cx="232.577" cy="902.879" r="3.59437" transform="rotate(-12.7856 232.577 902.879)" fill="white"/>
</g>
<defs>
<clipPath id="clip0_0_2">
<rect width="1024" height="1024" fill="white"/>
</clipPath>
</defs>
</svg>
