<svg width="2000" height="2000" viewBox="0 0 2000 2000" fill="none" xmlns="http://www.w3.org/2000/svg">
<rect width="2000" height="2000" fill="url(#paint0_linear_1002_2)"/>
<path d="M1196.35 577.992C1260.95 543.059 1262.9 452.843 1190.5 440.513C1133.96 430.884 1076.07 432.487 1020.15 445.228C964.228 457.97 911.364 481.602 864.575 514.774C817.786 547.946 777.988 590.009 747.455 638.562C716.922 687.114 696.25 741.207 686.622 797.748C676.993 854.289 678.595 912.173 691.337 968.095C704.079 1024.02 727.71 1076.88 760.883 1123.67C803.36 1183.59 883.828 1142.75 887.327 1069.39C892.674 957.276 906.984 821.068 944.02 762.175C981.056 703.281 1097.62 631.378 1196.35 577.992Z" fill="#121316"/>
<path d="M754.942 1371.04C690.337 1405.97 688.39 1496.19 760.793 1508.52C817.334 1518.15 875.218 1516.55 931.141 1503.8C987.063 1491.06 1039.93 1467.43 1086.72 1434.26C1133.51 1401.09 1173.3 1359.02 1203.84 1310.47C1234.37 1261.92 1255.04 1207.83 1264.67 1151.28C1274.3 1094.74 1272.7 1036.86 1259.95 980.936C1247.21 925.014 1223.58 872.149 1190.41 825.36C1147.93 765.445 1067.46 806.283 1063.96 879.644C1058.62 991.755 1044.31 1127.96 1007.27 1186.86C970.235 1245.75 853.671 1317.65 754.942 1371.04Z" fill="#121316"/>
<defs>
<linearGradient id="paint0_linear_1002_2" x1="1213.5" y1="496" x2="562.5" y2="1725.5" gradientUnits="userSpaceOnUse">
<stop stop-color="#00C4FB"/>
<stop offset="1" stop-color="#0075F7"/>
</linearGradient>
</defs>
</svg>
