<svg width="500" height="500" viewBox="0 0 500 500" fill="none" xmlns="http://www.w3.org/2000/svg">
<rect width="500" height="500" fill="url(#paint0_linear_603_2)"/>
<g filter="url(#filter0_d_603_2)">
<path d="M369.308 185.893C371.029 197.815 372 210.873 372 222.916C372 234.743 370.73 247.219 369.322 258.965C365.412 291.594 348.618 320.568 322.743 340.791C269.12 382.702 187.594 368.229 149.707 312.551C139.832 298.04 133.376 281.144 130.699 263.836C128.662 250.667 127.055 237.186 127.055 223.89C127.055 201.369 124.995 174.436 146.05 159.381C149.294 157.06 153.033 155.173 156.788 153.829C165.685 150.644 176.007 150.466 185.098 152.921C188.694 153.893 194.5 158.691 198.312 157.905C201.275 157.294 204.327 152.651 206.589 150.744C212.122 146.077 218.398 142.278 225.122 139.568C243.886 132.005 266.457 133.97 283.695 144.45C289.41 147.924 294.42 154.239 300 157.5C303 159.253 306.654 156.084 309 155C314.2 152.596 319.036 151.708 324.696 151.1C345.672 148.845 366.338 165.321 369.308 185.893ZM338.701 189.794C335.587 180.016 320.606 176.5 315.806 188.82C313.511 194.711 314.933 203.046 314.933 209.276C314.933 224.647 316.567 240.975 313.091 256.042C302.406 302.355 245.662 322.994 208.527 292.612C195.006 281.551 186.523 265.491 184.401 248.247C183.151 238.088 184.122 227.301 184.122 217.07C184.122 208.664 185.906 197.901 183.562 189.791C180.183 178.093 162.5 177.139 158.901 191.738C156.474 201.584 156.788 212.777 156.788 222.916C156.788 241.07 158.486 259.187 165.012 276.502C186.27 332.894 259.098 353.527 306.148 315.021C324.933 299.646 338.063 277.24 340.372 253.119C341.322 243.203 341.969 232.875 341.969 222.916C341.969 212.93 341.742 199.34 338.701 189.794ZM283.238 192.713C277.993 164.962 241.552 156.923 223.351 177.139C211.454 190.353 214.384 210.418 214.384 226.813C214.384 234.177 213.64 241.982 215.184 249.222C221.067 276.839 257.672 287.124 276.062 264.772C287.068 251.394 283.695 232.232 283.695 216.096C283.695 208.513 284.65 200.184 283.238 192.713Z" fill="#F8FFFC"/>
</g>
<defs>
<filter id="filter0_d_603_2" x="104" y="116" width="291" height="276" filterUnits="userSpaceOnUse" color-interpolation-filters="sRGB">
<feFlood flood-opacity="0" result="BackgroundImageFix"/>
<feColorMatrix in="SourceAlpha" type="matrix" values="0 0 0 0 0 0 0 0 0 0 0 0 0 0 0 0 0 0 127 0" result="hardAlpha"/>
<feOffset dy="4"/>
<feGaussianBlur stdDeviation="11.5"/>
<feComposite in2="hardAlpha" operator="out"/>
<feColorMatrix type="matrix" values="0 0 0 0 0 0 0 0 0 0 0 0 0 0 0 0 0 0 0.25 0"/>
<feBlend mode="normal" in2="BackgroundImageFix" result="effect1_dropShadow_603_2"/>
<feBlend mode="normal" in="SourceGraphic" in2="effect1_dropShadow_603_2" result="shape"/>
</filter>
<linearGradient id="paint0_linear_603_2" x1="500" y1="3.76081" x2="35.0811" y2="526.97" gradientUnits="userSpaceOnUse">
<stop stop-color="#62BA84"/>
<stop offset="0.15625" stop-color="#63BF9A"/>
<stop offset="0.875" stop-color="#62AEE9"/>
<stop offset="0.976999" stop-color="#62A3C0"/>
</linearGradient>
</defs>
</svg>
